<svg id="svg" version="1.1" xmlns="http://www.w3.org/2000/svg" xmlns:xlink="http://www.w3.org/1999/xlink" width="400" height="400" viewBox="0, 0, 400,400"><g id="svgg"><path id="path0" d="M88.059 0.977 C 84.526 3.626,68.750 28.461,68.750 31.373 C 68.750 34.105,72.060 38.249,118.075 93.127 C 145.204 125.482,167.798 152.480,168.285 153.125 C 168.898 153.938,169.045 158.090,168.764 166.680 L 168.359 179.064 161.552 181.623 C 98.019 205.506,69.400 278.038,99.657 338.490 C 133.789 406.686,226.196 421.580,280.078 367.571 C 339.156 308.353,316.333 208.716,237.305 180.839 L 231.250 178.704 231.120 167.477 C 231.048 161.302,230.960 155.735,230.924 155.106 C 230.889 154.477,253.447 127.035,281.055 94.124 C 327.826 38.368,331.250 34.087,331.250 31.368 C 331.250 28.417,316.023 3.427,312.732 0.977 C 310.810 -0.455,89.967 -0.455,88.059 0.977 M307.665 16.992 C 309.334 19.463,311.117 22.275,311.628 23.242 L 312.555 25.000 200.023 25.000 L 87.491 25.000 91.597 18.768 L 95.703 12.535 200.166 12.518 L 304.629 12.500 307.665 16.992 M142.372 83.044 C 163.313 108.054,181.345 129.482,182.443 130.664 C 187.193 135.778,195.359 131.720,193.980 124.930 C 193.770 123.894,177.501 103.887,157.828 80.469 L 122.058 37.891 169.232 37.689 C 195.178 37.579,237.598 37.579,263.499 37.689 L 310.592 37.891 262.731 94.922 L 214.869 151.953 207.370 152.178 C 200.161 152.393,199.911 152.345,200.912 150.933 C 201.485 150.125,219.883 128.110,241.797 102.009 C 287.947 47.044,285.872 50.015,281.499 45.161 C 276.444 39.552,276.944 39.064,228.125 97.266 C 203.977 126.055,183.990 149.673,183.711 149.750 C 183.432 149.828,167.852 131.547,149.089 109.125 C 130.326 86.704,109.143 61.416,102.017 52.930 L 89.059 37.500 96.678 37.537 L 104.297 37.573 142.372 83.044 M218.750 170.582 L 218.750 175.539 205.273 175.189 C 197.861 174.997,189.424 175.167,186.523 175.568 L 181.250 176.296 181.250 170.960 L 181.250 165.625 200.000 165.625 L 218.750 165.625 218.750 170.582 M217.548 189.528 C 289.932 201.459,324.302 288.076,280.049 347.040 C 235.745 406.072,144.956 397.976,111.741 332.031 C 75.124 259.329,136.828 176.223,217.548 189.528 M187.891 200.441 C 187.031 200.637,184.395 201.187,182.031 201.664 C 126.420 212.887,96.366 275.692,122.076 326.953 C 154.222 391.046,246.549 391.276,278.877 327.344 C 295.529 294.412,288.801 249.809,263.689 226.661 C 254.713 218.388,247.087 227.492,255.152 236.850 C 288.633 275.697,278.115 331.502,233.038 354.186 C 184.199 378.762,125.990 341.961,126.323 286.719 C 126.653 231.924,183.660 196.796,233.387 220.744 C 241.893 224.840,243.133 224.956,246.154 221.935 C 252.663 215.426,243.474 207.959,221.875 202.206 C 216.220 200.700,192.232 199.454,187.891 200.441 M192.826 238.314 C 192.103 238.736,190.958 240.987,190.280 243.317 C 187.851 251.672,182.612 255.361,172.002 256.186 C 162.490 256.926,161.719 257.963,161.719 270.004 C 161.719 284.122,161.974 284.375,176.236 284.375 L 185.938 284.375 185.938 307.696 C 185.938 331.734,186.320 335.251,189.093 336.735 C 191.991 338.286,215.223 337.686,217.296 336.007 L 219.141 334.513 219.141 287.500 L 219.141 240.487 217.296 238.993 C 215.227 237.318,195.474 236.770,192.826 238.314 M206.250 287.500 L 206.250 325.000 202.734 325.000 L 199.219 325.000 199.219 300.087 C 199.219 268.947,200.463 271.586,185.618 271.229 C 175.257 270.979,172.038 270.094,177.930 269.115 C 188.966 267.281,196.872 261.903,200.989 253.429 C 202.240 250.854,203.103 250.000,204.453 250.000 L 206.250 250.000 206.250 287.500 " stroke="none" fill="#000000" fill-rule="evenodd"></path></g></svg>